<?xml version="1.0" standalone="no"?>
<svg xmlns="http://www.w3.org/2000/svg" viewBox="0 0 122.064 36" width="122.064" height="36"><g fill="#6a8bff" color="#6a8bff" transform="translate(0 4) scale(0.5384616)">
    <svg width="52.0" height="52.0" x="0.0" y="0.0" viewBox="0 0 52 52">
    <path fill="currentColor" fill-rule="evenodd" d="M41.425 44.023v-3.275l3.389-3.677v3.371a24.18 24.18 0 0 1-3.389 3.581zM6.719 40.442v-3.359l3.389 3.677v3.263a24.175 24.175 0 0 1-3.389-3.581zm5.141.481l3.331-3.766v3.859l-3.33 3.82V40.923zM6.72 30.136l3.388 3.493v4.544l-3.389-3.676v-4.361zm3.388.975l-3.389-3.493v-4.13l3.389 3.68v3.943zm1.752 2.523l3.331-3.433v4.31l-3.33 3.766v-4.643zm3.331-10.146v4.196l-3.33 3.433V27.11l3.33-3.622zm6.369 4.514l3.33 3.614v4.141l-3.33-3.797v-3.958zm3.33-6.036l-3.33-3.433v-4.101l3.33 3.622v3.912zm5.083-3.383l-3.33 3.434v-4.021l3.33-3.623v4.21zm-3.33 13.234l.002.003 3.328-3.764V31.9l-3.33 3.798v-3.882zm-1.753-2.788l-3.33-3.613V21.05l3.33 3.433v4.545zm1.752-4.495l3.33-3.433v4.308l-3.33 3.768v-4.643zm14.783 9.086l3.389-3.493v4.358l-3.389 3.677V33.62zm-1.753-2.554l-3.33-3.433v-4.145l3.33 3.622v3.956zm0 7.234l-3.33-3.768v-4.381l3.33 3.432V38.3zm5.142-14.812v4.121l-3.389 3.493V27.17l3.389-3.681zm-5.142 21.348l-3.33-3.82v-3.838l3.329 3.767.001-.001v3.892zM25.766 1.753c13.263 0 24.014 10.809 24.014 24.072a23.9 23.9 0 0 1-3.213 11.995V19.047l-5.987 6.444-5.991-6.502v22.728l3.933 4.45a23.876 23.876 0 0 1-11.88 3.65V38.384l5.083-5.783V9.932l-5.96 6.47-5.958-6.47v22.67l5.083 5.85v11.364a23.878 23.878 0 0 1-11.88-3.649l3.934-4.45V18.989l-5.99 6.502-5.987-6.444V37.82a23.895 23.895 0 0 1-3.214-11.995c0-13.263 10.75-24.072 24.013-24.072zm0-1.753C11.568 0 0 11.627 0 25.825 0 40.023 11.568 51.59 25.766 51.59c14.198 0 25.767-11.627 25.767-25.825C51.533 11.57 39.964 0 25.766 0z">
    </path>
</svg>
</g>
    <path fill="#5e24c3" fill-rule="nonzero" d="M12.38 12.17L12.38 12.17Q12.38 14.54 11.10 15.82Q9.82 17.09 7.51 17.09L7.51 17.09L5.21 17.09Q2.38 17.09 1.19 16.10Q0 15.12 0 12.70L0 12.70L0 0L7.22 0Q9.67 0 10.91 1.22Q12.14 2.45 12.14 4.68L12.14 4.68Q12.14 5.98 11.48 6.89Q10.82 7.80 10.03 8.18L10.03 8.18Q12.38 9.29 12.38 12.17ZM3.34 6.67L6.96 6.67Q8.81 6.67 8.81 4.82Q8.81 2.98 6.96 2.98L6.96 2.98L3.34 2.98L3.34 6.67ZM9.05 12L9.05 12Q9.05 10.85 8.64 10.26Q8.23 9.67 7.18 9.67L7.18 9.67L3.34 9.67L3.34 12.36Q3.34 13.34 3.83 13.73Q4.32 14.11 5.45 14.11L5.45 14.11L7.18 14.11Q9.05 14.11 9.05 12ZM22.82 3.43L22.82 3.43L21.96 6.50Q21.60 6.36 21.14 6.36L21.14 6.36Q19.94 6.36 18.19 7.39L18.19 7.39L18.19 17.09L15.07 17.09L15.07 3.38L17.40 3.38L18.12 4.58L21.43 3.22Q21.67 3.19 22.08 3.19Q22.49 3.19 22.82 3.43ZM35.18 10.97L35.18 10.97L27.19 10.97Q27.19 12.84 27.78 13.70Q28.37 14.57 30.14 14.57L30.14 14.57Q31.30 14.57 31.85 13.84Q32.40 13.10 32.40 12.43L32.40 12.43L35.21 12.43Q35.21 15 33.83 16.20Q32.45 17.40 30.18 17.40Q27.91 17.40 26.66 16.75L26.66 16.75Q24.10 15.43 24.10 9.74L24.10 9.74Q24.10 6.36 25.56 4.79Q27.02 3.22 30.02 3.22L30.02 3.22Q35.23 3.22 35.23 9L35.23 9Q35.23 9.62 35.18 10.97ZM27.26 8.83L27.26 8.83L32.40 8.83Q32.40 7.25 31.80 6.53Q31.20 5.81 29.96 5.81Q28.73 5.81 28.00 6.54Q27.26 7.27 27.26 8.83ZM51.14 3.38L54.43 3.38L50.62 17.09L48.05 17.09L45.43 8.76L42.82 17.09L40.25 17.09L36.41 3.38L39.72 3.38L41.74 12.31L43.82 4.97Q44.18 3.38 45.46 3.38L45.46 3.38Q46.06 3.38 46.42 3.77Q46.78 4.15 47.02 4.97L47.02 4.97L49.13 12.31L51.14 3.38ZM69.14 17.09L69.14 6.89L66.07 13.37Q65.40 14.66 64.40 14.66Q63.41 14.66 62.74 13.30L62.74 13.30L59.62 6.89L59.62 17.09L56.28 17.09L56.28 0L59.57 0L64.39 9.86L69.19 0L72.48 0L72.48 17.09L69.14 17.09ZM86.02 10.97L86.02 10.97L78.02 10.97Q78.02 12.84 78.61 13.70Q79.20 14.57 80.98 14.57L80.98 14.57Q82.13 14.57 82.68 13.84Q83.23 13.10 83.23 12.43L83.23 12.43L86.04 12.43Q86.04 15 84.66 16.20Q83.28 17.40 81.01 17.40Q78.74 17.40 77.50 16.75L77.50 16.75Q74.93 15.43 74.93 9.74L74.93 9.74Q74.93 6.36 76.39 4.79Q77.86 3.22 80.86 3.22L80.86 3.22Q86.06 3.22 86.06 9L86.06 9Q86.06 9.62 86.02 10.97ZM78.10 8.83L78.10 8.83L83.23 8.83Q83.23 7.25 82.63 6.53Q82.03 5.81 80.80 5.81Q79.56 5.81 78.83 6.54Q78.10 7.27 78.10 8.83Z" transform="translate(36, 9.456)">
    </path>
</svg>